<svg width="39" height="30" viewBox="0 0 39 30" fill="none" xmlns="http://www.w3.org/2000/svg">
<g clip-path="url(#clip0)">
<path d="M9.09734 27.9424V26.2167C9.09734 25.5552 8.69469 25.1238 8.00442 25.1238C7.65929 25.1238 7.2854 25.2388 7.02655 25.6127C6.82522 25.2963 6.53761 25.1238 6.10619 25.1238C5.81858 25.1238 5.53097 25.2101 5.30088 25.5264V25.1813H4.6969V27.9424H5.30088V26.418C5.30088 25.9291 5.55973 25.699 5.96238 25.699C6.36504 25.699 6.56637 25.9578 6.56637 26.418V27.9424H7.17035V26.418C7.17035 25.9291 7.45796 25.699 7.83185 25.699C8.23451 25.699 8.43584 25.9578 8.43584 26.418V27.9424H9.09734V27.9424ZM18.042 25.1813H17.0642V24.3472H16.4602V25.1813H15.9137V25.7278H16.4602V26.9932C16.4602 27.626 16.719 27.9999 17.4093 27.9999C17.6681 27.9999 17.9557 27.9136 18.1571 27.7985L17.9845 27.2808C17.8119 27.3959 17.6106 27.4246 17.4668 27.4246C17.1792 27.4246 17.0642 27.2521 17.0642 26.9645V25.7278H18.042V25.1813V25.1813ZM23.1615 25.1238C22.8164 25.1238 22.5863 25.2963 22.4425 25.5264V25.1813H21.8385V27.9424H22.4425V26.3893C22.4425 25.9291 22.6438 25.6702 23.0177 25.6702C23.1327 25.6702 23.2765 25.699 23.3916 25.7278L23.5642 25.1525C23.4491 25.1238 23.2765 25.1238 23.1615 25.1238V25.1238ZM15.4248 25.4114C15.1372 25.2101 14.7345 25.1238 14.3031 25.1238C13.6128 25.1238 13.1527 25.4689 13.1527 26.0154C13.1527 26.4755 13.4978 26.7344 14.1018 26.8207L14.3894 26.8494C14.7057 26.907 14.8783 26.9932 14.8783 27.137C14.8783 27.3384 14.6482 27.4822 14.2456 27.4822C13.8429 27.4822 13.5265 27.3384 13.3252 27.1946L13.0376 27.6547C13.354 27.8848 13.7854 27.9999 14.2168 27.9999C15.0221 27.9999 15.4823 27.626 15.4823 27.1083C15.4823 26.6193 15.1084 26.3605 14.5332 26.2742L14.2456 26.2455C13.9867 26.2167 13.7854 26.1592 13.7854 25.9866C13.7854 25.7853 13.9867 25.6702 14.3031 25.6702C14.6482 25.6702 14.9934 25.814 15.1659 25.9003L15.4248 25.4114V25.4114ZM31.4735 25.1238C31.1283 25.1238 30.8982 25.2963 30.7544 25.5264V25.1813H30.1504V27.9424H30.7544V26.3893C30.7544 25.9291 30.9558 25.6702 31.3297 25.6702C31.4447 25.6702 31.5885 25.699 31.7035 25.7278L31.8761 25.1525C31.7611 25.1238 31.5885 25.1238 31.4735 25.1238V25.1238ZM23.7655 26.5618C23.7655 27.3959 24.3407 27.9999 25.2323 27.9999C25.635 27.9999 25.9226 27.9136 26.2102 27.6835L25.9226 27.1946C25.6925 27.3671 25.4624 27.4534 25.2035 27.4534C24.7146 27.4534 24.3695 27.1083 24.3695 26.5618C24.3695 26.0441 24.7146 25.699 25.2035 25.6702C25.4624 25.6702 25.6925 25.7565 25.9226 25.9291L26.2102 25.4401C25.9226 25.2101 25.635 25.1238 25.2323 25.1238C24.3407 25.1238 23.7655 25.7277 23.7655 26.5618V26.5618ZM29.3451 26.5618V25.1813H28.7412V25.5264C28.5398 25.2676 28.2522 25.1238 27.8783 25.1238C27.1018 25.1238 26.4978 25.7277 26.4978 26.5618C26.4978 27.3959 27.1018 27.9999 27.8783 27.9999C28.281 27.9999 28.5686 27.8561 28.7412 27.5972V27.9424H29.3451V26.5618ZM27.1305 26.5618C27.1305 26.0729 27.4469 25.6702 27.9646 25.6702C28.4535 25.6702 28.7987 26.0441 28.7987 26.5618C28.7987 27.0508 28.4535 27.4534 27.9646 27.4534C27.4469 27.4246 27.1305 27.0508 27.1305 26.5618ZM19.9115 25.1238C19.1062 25.1238 18.531 25.699 18.531 26.5618C18.531 27.4246 19.1062 27.9999 19.9403 27.9999C20.3429 27.9999 20.7456 27.8848 21.0619 27.626L20.7743 27.1946C20.5442 27.3671 20.2566 27.4822 19.969 27.4822C19.5951 27.4822 19.2212 27.3096 19.135 26.8207H21.177C21.177 26.7344 21.177 26.6769 21.177 26.5906C21.2057 25.699 20.6881 25.1238 19.9115 25.1238V25.1238ZM19.9115 25.6415C20.2854 25.6415 20.5442 25.8716 20.6018 26.303H19.1637C19.2212 25.9291 19.4801 25.6415 19.9115 25.6415ZM34.896 26.5618V24.0884H34.292V25.5264C34.0907 25.2676 33.8031 25.1238 33.4292 25.1238C32.6527 25.1238 32.0487 25.7277 32.0487 26.5618C32.0487 27.3959 32.6527 27.9999 33.4292 27.9999C33.8319 27.9999 34.1195 27.8561 34.292 27.5972V27.9424H34.896V26.5618ZM32.6814 26.5618C32.6814 26.0729 32.9978 25.6702 33.5155 25.6702C34.0044 25.6702 34.3496 26.0441 34.3496 26.5618C34.3496 27.0508 34.0044 27.4534 33.5155 27.4534C32.9978 27.4246 32.6814 27.0508 32.6814 26.5618ZM12.4912 26.5618V25.1813H11.8872V25.5264C11.6858 25.2676 11.3982 25.1238 11.0243 25.1238C10.2478 25.1238 9.6438 25.7277 9.6438 26.5618C9.6438 27.3959 10.2478 27.9999 11.0243 27.9999C11.427 27.9999 11.7146 27.8561 11.8872 27.5972V27.9424H12.4912V26.5618ZM10.2478 26.5618C10.2478 26.0729 10.5642 25.6702 11.0819 25.6702C11.5708 25.6702 11.9159 26.0441 11.9159 26.5618C11.9159 27.0508 11.5708 27.4534 11.0819 27.4534C10.5642 27.4246 10.2478 27.0508 10.2478 26.5618Z" fill="black"/>
<path d="M24.2832 4.21484H15.2235V20.4936H24.2832V4.21484Z" fill="#FF5F00"/>
<path d="M15.7987 12.354C15.7987 9.04646 17.3518 6.11284 19.7389 4.21461C17.9845 2.83407 15.7699 2 13.354 2C7.63053 2 3 6.63053 3 12.354C3 18.0774 7.63053 22.708 13.354 22.708C15.7699 22.708 17.9845 21.8739 19.7389 20.4934C17.3518 18.6239 15.7987 15.6615 15.7987 12.354Z" fill="#EB001B"/>
<path d="M36.5066 12.354C36.5066 18.0774 31.8761 22.708 26.1526 22.708C23.7367 22.708 21.5221 21.8739 19.7677 20.4934C22.1836 18.5951 23.708 15.6615 23.708 12.354C23.708 9.04646 22.1549 6.11284 19.7677 4.21461C21.5221 2.83407 23.7367 2 26.1526 2C31.8761 2 36.5066 6.65929 36.5066 12.354Z" fill="#F79E1B"/>
</g>
<defs>
<clipPath id="clip0">
<rect width="33.5066" height="26" fill="white" transform="translate(3 2)"/>
</clipPath>
</defs>
</svg>
