<svg width="39" height="30" viewBox="0 0 39 30" fill="none" xmlns="http://www.w3.org/2000/svg">
<g clip-path="url(#clip0)">
<path d="M0.992676 9.93628H38.221V4.59326H0.992676V9.93628Z" fill="#004E8C"/>
<path d="M0.992676 26.0662H38.221V20.7231H0.992676V26.0662Z" fill="#FFA336"/>
<path d="M14.03 11.48H15.9399L10.7579 19.7704H8.50434L8.30056 13.2107C8.29132 12.913 8.28323 12.605 8.16908 12.3669C8.05502 12.1288 7.87626 11.9621 7.63839 11.846C7.40053 11.7299 7.10374 11.6644 6.81091 11.6681V11.48H10.5286L10.7106 17.1232L14.03 11.48Z" fill="#004E8C"/>
<path d="M16.3088 19.7704L18.9698 11.48H16.6016L13.9407 19.7704H16.3088Z" fill="#004E8C"/>
<path d="M17.6842 19.0677C18.0439 19.427 18.5073 19.6773 19.1399 19.8005C19.7726 19.9237 20.5744 19.9201 21.3349 19.7921C22.0954 19.6643 22.8144 19.4123 23.3225 19.0307C23.8306 18.6491 24.1278 18.1378 24.2724 17.5842C24.4171 17.0305 24.4093 16.4345 24.1042 15.9694C23.7992 15.5044 23.197 15.1702 22.6959 14.8551C22.1947 14.5401 21.7946 14.244 21.6285 13.9109C21.4623 13.5778 21.5301 13.2076 21.7247 12.9701C21.9192 12.7326 22.2406 12.6279 22.6359 12.6035C23.0311 12.5792 23.5003 12.6352 23.8894 12.7425C24.2785 12.8498 24.5876 13.0085 24.8524 13.223L25.6418 11.9813C25.2753 11.7232 24.8589 11.5394 24.2709 11.4043C23.6828 11.2691 22.9229 11.1825 22.2624 11.2308C21.6019 11.279 21.0407 11.4621 20.5435 11.7864C20.0463 12.1107 19.6132 12.576 19.37 13.0776C19.1267 13.5792 19.0736 14.1169 19.2225 14.5818C19.3715 15.0467 19.7228 15.4388 20.0852 15.72C20.4476 16.0011 20.8213 16.1711 21.1495 16.3659C21.4779 16.5606 21.7607 16.78 21.9128 17.0432C22.0649 17.3064 22.0861 17.6133 21.9029 17.8679C21.7197 18.1225 21.3319 18.325 20.8854 18.3971C20.4388 18.4691 19.9333 18.4106 19.4631 18.2702C18.9929 18.1296 18.5582 17.9068 18.1808 17.6129L17.6842 19.0677Z" fill="#004E8C"/>
<path d="M26.5476 17.8514L25.4761 19.7704H23.5663L28.6464 11.48H30.798L31.5238 19.7704H29.283L29.1256 17.8514H26.5476V17.8514ZM28.7954 13.8262L27.1499 16.7728H29.037L28.7954 13.8262Z" fill="#004E8C"/>
</g>
<defs>
<clipPath id="clip0">
<rect width="39" height="25" fill="white" transform="translate(0 3)"/>
</clipPath>
</defs>
</svg>
